<?xml version="1.0" encoding="utf-8"?>
<!-- Generator: Adobe Illustrator 27.3.0, SVG Export Plug-In . SVG Version: 6.00 Build 0)  -->
<svg version="1.1" id="Layer_1" xmlns="http://www.w3.org/2000/svg" xmlns:xlink="http://www.w3.org/1999/xlink" x="0px" y="0px"
	 viewBox="0 0 64 64" style="enable-background:new 0 0 64 64;" xml:space="preserve">
<style type="text/css">
	.st0{fill:#AE7E54;}
	.st1{fill:#FCF8E2;}
</style>
<path class="st0" d="M32,0L32,0c17.7,0,32,14.3,32,32l0,0c0,17.7-14.3,32-32,32l0,0C14.3,64,0,49.7,0,32l0,0C0,14.3,14.3,0,32,0z"/>
<path class="st1" d="M25.2,44c3.7,0,5.9-0.8,5.9-1.9c0-0.2-0.1-0.5-0.5-1.1c-1.6-2.4-2.5-6.1-2.5-9.6c0-2.3,0.2-4.4,0.6-6.3
	c1.3-0.6,2.5-0.9,3.5-0.9c2.9,0,4.3,2.5,4.3,7c0,3.7-0.9,7.4-2.5,9.8c-0.4,0.6-0.5,0.9-0.5,1.1c0,1,2.3,1.9,5.9,1.9
	c3.7,0,5.9-0.8,5.9-1.9c0-0.2-0.1-0.5-0.5-1.1c-1.6-2.4-2.5-6.1-2.5-9.1c0-3.2,0.5-4.1,0.5-6.3c0-3.7-2.6-5.6-5.8-5.6
	c-3.6,0-5.6,2-7.4,2c-1.7,0-3.3-2-6.4-2c-2.3,0-4.2,0.5-4.2,1.5c0,0.6,0.6,1.5,1.3,2.3c1.5,1.8,2.2,4.6,2.2,7.6
	c0,3.5-0.9,7.2-2.6,9.6c-0.4,0.6-0.5,0.9-0.5,1.1C19.3,43.2,21.5,44,25.2,44"/>
</svg>
