<svg width="24" height="24" viewBox="0 0 24 24" fill="none" xmlns="http://www.w3.org/2000/svg">
<path d="M20 20H4V19.4167C4.36923 15.8 7.44615 13 11.3846 13H12.6154C16.4308 13 19.6308 15.6833 20 19.4167V20ZM5.35385 18.8333H18.6462C18.0308 16.15 15.5692 14.1667 12.6154 14.1667H11.3846C8.43077 14.1667 5.96923 16.15 5.35385 18.8333Z" fill="#3A3026"/>
<path d="M12 12C9.8 12 8 10.2 8 8C8 5.8 9.8 4 12 4C14.2 4 16 5.8 16 8C16 10.2 14.2 12 12 12ZM12 5C10.3 5 9 6.3 9 8C9 9.7 10.3 11 12 11C13.7 11 15 9.7 15 8C15 6.3 13.6 5 12 5Z" fill="#3A3026"/>
</svg>
