<svg width="87" height="22" viewBox="0 0 87 22" fill="none" xmlns="http://www.w3.org/2000/svg">
<path d="M74.1003 13.5997C74.1003 10.5718 75.8591 8.29243 78.1394 8.29243C80.4197 8.29243 82.0481 10.7343 82.0481 13.5997C82.0481 16.4651 80.4197 18.907 78.1394 18.907C75.8591 18.907 74.1003 16.6602 74.1003 13.5997ZM69.9635 13.5997C69.9635 18.6137 73.0251 22 77.0316 22C79.0185 22 80.5822 20.9257 81.5266 19.0047C81.6243 18.8092 81.8846 18.7766 81.9498 19.1024L82.2432 20.6655C82.341 21.1212 82.5365 21.7398 83.3505 21.7398H85.6955C86.0536 21.7398 86.2166 21.5117 86.2166 21.1863V6.01349C86.2166 5.68811 86.0536 5.46004 85.6955 5.46004H83.3505C82.5361 5.46004 82.341 6.07865 82.2432 6.53435L81.9498 8.09738C81.8846 8.42276 81.6243 8.39062 81.5266 8.19513C80.5817 6.27414 79.0185 5.19983 77.0316 5.19983C73.0251 5.19983 69.9635 8.58611 69.9635 13.6001M51.9841 21.1538V0.553445C51.9841 0.228071 52.2123 0 52.5378 0H56.1531C56.4786 0 56.7068 0.228071 56.7068 0.553445V11.2877C56.7068 11.4506 56.7394 11.7108 57.0001 11.7108C57.1631 11.7108 57.3582 11.6131 57.5538 11.4828C58.8241 10.6687 62.6676 7.25026 63.8401 5.78498C63.9379 5.65465 64.1656 5.4596 64.4916 5.4596H66.9344C67.13 5.4596 67.2599 5.52477 67.3577 5.68767C67.4555 5.85058 67.3903 6.04563 67.2599 6.20854C66.6084 7.12038 63.1556 10.3763 62.2113 11.19C62.0157 11.3529 61.9505 11.5479 62.2765 11.6783C63.2534 12.0688 63.7097 12.4272 64.1656 13.111C64.3938 13.4042 65.4033 15.1623 65.5011 15.3252C66.2829 16.6276 67.7488 19.2649 68.5954 20.2741C69.0513 20.8275 69.4424 21.0882 69.8005 21.1207V21.7393H65.3055C64.5889 21.7393 64.1004 21.6416 63.5794 21.1533C63.1887 20.7628 62.8953 20.3066 62.5698 19.7206L59.9314 14.9668C59.3452 13.8925 58.6937 13.2413 57.8141 13.4038C56.9345 13.5667 56.7068 14.3156 56.7068 15.2596V21.1529C56.7068 21.4783 56.5112 21.7389 56.1857 21.7389H52.5052C52.1797 21.7389 51.9841 21.4783 51.9841 21.1529M42.278 21.1529V13.9572C42.278 12.9806 42.3106 11.8082 42.7665 10.7338C43.4831 9.00834 45.0142 8.25941 46.61 8.16167C47.5548 8.0965 48.4666 8.22683 49.0528 8.4549C49.1506 8.48748 49.2158 8.52006 49.3136 8.52006C49.5091 8.52006 49.7043 8.38974 49.7043 8.12953V6.20854C49.7043 5.75284 49.6065 5.49218 49.1506 5.36186C48.7599 5.23153 47.9455 5.19895 47.7173 5.19895C47.4566 5.19895 46.3167 5.16637 45.1767 5.62207C44.102 6.04519 43.3528 6.72896 42.7991 7.80371C42.7013 7.9992 42.5709 8.19425 42.3758 8.19425C42.1477 8.19425 42.0503 7.9336 41.9851 7.80371C41.7896 7.41317 41.627 7.02219 41.4315 6.66424C41.106 5.98047 40.2915 5.4596 39.5749 5.4596H38.0764C37.7183 5.4596 37.5554 5.68767 37.5554 6.01305V21.1533C37.5554 21.4787 37.7509 21.7393 38.0764 21.7393H41.757C42.0825 21.7393 42.278 21.4787 42.278 21.1533M22.5069 13.5997C22.5069 10.5718 24.2657 8.29243 26.5459 8.29243C28.8262 8.29243 30.4546 10.7343 30.4546 13.5997C30.4546 16.4651 28.8262 18.907 26.5459 18.907C24.2657 18.907 22.5069 16.6602 22.5069 13.5997ZM18.37 13.5997C18.37 18.6137 21.4317 22 25.4382 22C27.4251 22 28.9888 20.9257 29.9331 19.0047C30.0309 18.8092 30.2912 18.7766 30.3564 19.1024L30.6498 20.6655C30.7475 21.1212 30.9431 21.7398 31.7571 21.7398H34.1021C34.4602 21.7398 34.6232 21.5117 34.6232 21.1863V6.01349C34.6232 5.68811 34.4602 5.46004 34.1021 5.46004H31.7571C30.9427 5.46004 30.7475 6.07865 30.6498 6.53435L30.3564 8.09738C30.2912 8.42276 30.0309 8.39062 29.9331 8.19513C28.9883 6.27414 27.4251 5.19983 25.4382 5.19983C21.4317 5.19983 18.37 8.58611 18.37 13.6001M16.0902 21.1538V11.028C16.0902 10.4093 16.0576 9.88849 15.9272 9.30246C15.5039 7.44663 14.2662 5.98135 12.2793 5.46048C11.693 5.29758 11.009 5.23241 10.4227 5.23241C8.04509 5.23241 6.38366 6.14426 5.30892 8.03266C5.21114 8.19557 5.08076 8.4232 4.88564 8.4232C4.65748 8.4232 4.59229 8.22771 4.49495 8.03266L3.94128 6.89319C3.4854 5.94877 2.73617 5.46048 1.75878 5.46048H0.488476C0.162972 5.46048 0 5.68855 0 6.01393V21.1542C0 21.4796 0.195566 21.7402 0.52107 21.7402H4.2016C4.5271 21.7402 4.72267 21.4796 4.72267 21.1542V13.763C4.72267 12.4932 4.78785 11.3212 5.37411 10.2139C5.99297 9.04181 6.97036 8.48836 8.24066 8.48836C11.4327 8.48836 11.3675 12.1023 11.3675 12.8512V21.1538C11.3675 21.4791 11.5631 21.7398 11.8886 21.7398H15.5691C15.8946 21.7398 16.0902 21.4791 16.0902 21.1538Z" fill="#3A3026"/>
</svg>
