<svg width="118" height="31" viewBox="0 0 118 31" fill="none" xmlns="http://www.w3.org/2000/svg">
<path d="M101.417 19.5255C101.417 15.3966 103.824 12.2883 106.945 12.2883C110.066 12.2883 112.295 15.6181 112.295 19.5255C112.295 23.4329 110.066 26.7627 106.945 26.7627C103.824 26.7627 101.417 23.6989 101.417 19.5255ZM95.7552 19.5255C95.7552 26.3628 99.9455 30.9805 105.429 30.9805C108.148 30.9805 110.288 29.5155 111.581 26.896C111.715 26.6294 112.071 26.585 112.16 27.0293L112.562 29.1607C112.696 29.7821 112.963 30.6256 114.077 30.6256H117.287C117.777 30.6256 118 30.3146 118 29.8709V9.18068C118 8.73699 117.777 8.42598 117.287 8.42598H114.077C112.963 8.42598 112.696 9.26954 112.562 9.89095L112.16 12.0224C112.071 12.466 111.715 12.4222 111.581 12.1556C110.288 9.53612 108.148 8.07115 105.429 8.07115C99.9455 8.07115 95.7552 12.6888 95.7552 19.5261M71.1478 29.8265V1.73517C71.1478 1.29147 71.4601 0.980469 71.9056 0.980469H76.8537C77.2992 0.980469 77.6115 1.29147 77.6115 1.73517V16.3728C77.6115 16.595 77.6561 16.9498 78.013 16.9498C78.236 16.9498 78.5031 16.8165 78.7708 16.6388C80.5093 15.5287 85.7697 10.8672 87.3745 8.86907C87.5083 8.69136 87.82 8.42538 88.2661 8.42538H91.6095C91.8771 8.42538 92.0549 8.51424 92.1888 8.73639C92.3226 8.95853 92.2334 9.22451 92.0549 9.44666C91.1633 10.6901 86.4377 15.13 85.1452 16.2395C84.8775 16.4617 84.7883 16.7277 85.2344 16.9054C86.5715 17.4379 87.1961 17.9267 87.82 18.8591C88.1323 19.2589 89.514 21.6563 89.6478 21.8785C90.7178 23.6544 92.7241 27.2508 93.8828 28.6269C94.5067 29.3816 95.042 29.737 95.5321 29.7815V30.625H89.3801C88.3993 30.625 87.7308 30.4917 87.0176 29.8259C86.4829 29.2934 86.0814 28.6713 85.6359 27.8722L82.0249 21.3897C81.2225 19.9248 80.3309 19.0368 79.127 19.2583C77.9232 19.4805 77.6115 20.5018 77.6115 21.789V29.8253C77.6115 30.269 77.3438 30.6244 76.8983 30.6244H71.861C71.4155 30.6244 71.1478 30.269 71.1478 29.8253M57.8636 29.8253V20.013C57.8636 18.6814 57.9083 17.0825 58.5322 15.6175C59.513 13.2646 61.6085 12.2433 63.7926 12.11C65.0857 12.0212 66.3336 12.1989 67.1359 12.5099C67.2698 12.5543 67.359 12.5987 67.4928 12.5987C67.7605 12.5987 68.0275 12.421 68.0275 12.0662V9.44666C68.0275 8.82525 67.8937 8.46981 67.2698 8.29209C66.735 8.11438 65.6204 8.06995 65.3081 8.06995C64.9512 8.06995 63.3911 8.02552 61.8309 8.64693C60.36 9.22391 59.3346 10.1563 58.5768 11.6219C58.443 11.8885 58.2645 12.1544 57.9975 12.1544C57.6852 12.1544 57.552 11.799 57.4628 11.6219C57.1951 11.0893 56.9726 10.5562 56.705 10.0681C56.2595 9.13565 55.1448 8.42538 54.164 8.42538H52.1131C51.623 8.42538 51.4 8.73639 51.4 9.18008V29.8259C51.4 30.2696 51.6676 30.625 52.1131 30.625H57.1505C57.596 30.625 57.8636 30.2696 57.8636 29.8259M30.8039 19.5255C30.8039 15.3966 33.2111 12.2883 36.332 12.2883C39.4529 12.2883 41.6816 15.6181 41.6816 19.5255C41.6816 23.4329 39.4529 26.7627 36.332 26.7627C33.2111 26.7627 30.8039 23.6989 30.8039 19.5255ZM25.1421 19.5255C25.1421 26.3628 29.3324 30.9805 34.8158 30.9805C37.5353 30.9805 39.6753 29.5155 40.9678 26.896C41.1017 26.6294 41.4579 26.585 41.5472 27.0293L41.9487 29.1607C42.0825 29.7821 42.3501 30.6256 43.4642 30.6256H46.6737C47.1638 30.6256 47.3869 30.3146 47.3869 29.8709V9.18068C47.3869 8.73699 47.1638 8.42598 46.6737 8.42598H43.4642C42.3495 8.42598 42.0825 9.26954 41.9487 9.89095L41.5472 12.0224C41.4579 12.466 41.1017 12.4222 40.9678 12.1556C39.6747 9.53612 37.5353 8.07115 34.8158 8.07115C29.3324 8.07115 25.1421 12.6888 25.1421 19.5261M22.0218 29.8265V16.0186C22.0218 15.175 21.9772 14.4648 21.7987 13.6656C21.2194 11.135 19.5254 9.13685 16.806 8.42658C16.0036 8.20444 15.0674 8.11558 14.265 8.11558C11.0109 8.11558 8.73697 9.359 7.26604 11.9341C7.13221 12.1562 6.95376 12.4666 6.68671 12.4666C6.37443 12.4666 6.28521 12.2001 6.15199 11.9341L5.39422 10.3803C4.77028 9.09242 3.74485 8.42658 2.40714 8.42658H0.66855C0.223051 8.42658 0 8.73759 0 9.18128V29.8271C0 30.2708 0.267661 30.6262 0.71316 30.6262H5.7505C6.19599 30.6262 6.46366 30.2708 6.46366 29.8271V19.7483C6.46366 18.0167 6.55288 16.4185 7.35526 14.9085C8.20225 13.3102 9.53995 12.5555 11.2785 12.5555C15.6473 12.5555 15.5581 17.4836 15.5581 18.5048V29.8265C15.5581 30.2702 15.8258 30.6256 16.2713 30.6256H21.3086C21.7541 30.6256 22.0218 30.2702 22.0218 29.8265Z" fill="white"/>
</svg>
