<svg width="24" height="24" viewBox="0 0 24 24" fill="none" xmlns="http://www.w3.org/2000/svg">
<path d="M20 19.3469L15.831 14.8844C16.8451 13.6871 17.5211 12.1633 17.5211 10.5306C17.5211 6.93878 14.4789 4 10.7606 4C7.04225 4 4 6.93878 4 10.5306C4 14.1224 7.04225 17.0612 10.7606 17.0612C12.4507 17.0612 13.9155 16.517 15.0423 15.5374L19.2113 20L20 19.3469ZM5.12676 10.5306C5.12676 7.48299 7.60563 5.08844 10.7606 5.08844C13.9155 5.08844 16.3944 7.48299 16.3944 10.5306C16.3944 13.5782 13.9155 15.9728 10.7606 15.9728C7.60563 15.9728 5.12676 13.5782 5.12676 10.5306Z" fill="#3A3026"/>
</svg>
